
                      <svg
                        xmlns="http://www.w3.org/2000/svg"
                        x="0px"
                        y="0px"
                        width="16"
                        height="16"
                        viewBox="0 0 172 172"
                        style="fill: #000000"
                      >
                        <g transform="">
                          <g
                            fill="none"
                            fill-rule="nonzero"
                            stroke="none"
                            stroke-width="1"
                            stroke-linecap="butt"
                            stroke-linejoin="miter"
                            stroke-miterlimit="10"
                            stroke-dasharray=""
                            stroke-dashoffset="0"
                            font-family="none"
                            font-weight="none"
                            font-size="none"
                            text-anchor="none"
                            style="mix-blend-mode: normal"
                          >
                            <path d="M0,172v-172h172v172z" fill="none"></path>
                            <g fill="#1a8547">
                              <path
                                d="M159.42303,12.57948c-16.7728,-16.77263 -44.05311,-16.77263 -60.82592,0l-35.84172,35.84135c-2.24142,2.2414 -4.21376,4.90456 -6.17298,8.16362c-3.25909,1.9592 -5.92229,3.93153 -8.1637,6.17292l-35.84172,35.84136c-16.7693,16.76913 -16.7693,44.05617 0,60.82529c8.3864,8.38631 19.39793,12.57598 30.41296,12.57598c11.01503,0 22.02656,-4.18966 30.41296,-12.57598l35.84172,-35.84136c2.24142,-2.24139 4.21376,-4.90456 6.17299,-8.16361c3.25908,-1.9592 5.92228,-3.93153 8.16369,-6.17293l35.84173,-35.84135c16.7693,-16.76914 16.7693,-44.05617 0,-60.8253zM68.33879,154.33879c-13.9694,13.9694 -36.70817,13.9694 -50.67757,0c-13.9729,-13.9729 -13.9729,-36.70467 0,-50.67757l35.83333,-35.83333c1.98413,-1.98413 4.36019,-3.7478 7.47111,-5.54997c6.39331,-3.69181 13.72445,-5.29102 21.13607,-4.61564c8.57341,0.78385 16.20549,4.3007 22.07039,10.16561c5.49966,5.49966 8.84067,12.58935 9.8931,20.51625l-5.69388,5.69388c-0.30094,0.30051 -0.67275,0.5179 -0.99075,0.79873c0.47547,-8.04806 -2.4128,-16.07907 -8.27552,-21.94179c-7.86654,-7.87004 -19.80632,-10.60653 -30.58781,-6.4318c-3.80379,1.46273 -7.15269,3.62883 -9.95565,6.4318l-35.83333,35.83333c-11.17692,11.17692 -11.17692,29.36654 0,40.54346c5.41349,5.41349 12.61165,8.39494 20.27173,8.39494c7.66008,0 14.85824,-2.98145 20.27173,-8.39494l27.71966,-27.71966c0.75236,0.03849 1.50559,0.10279 2.25577,0.10279c2.97313,0 5.89553,-0.39193 8.76981,-0.99425zM120.23282,82.17652c-1.88659,-7.39544 -5.59808,-14.02277 -10.99364,-19.4157c-5.3925,-5.39512 -12.01983,-9.10662 -19.41614,-10.9932l23.97229,-23.97229c8.11849,-8.11849 22.29085,-8.11849 30.40934,0c8.38444,8.38444 8.38444,22.0249 0,30.40934zM72.67229,72.66836c7.74187,-2.33625 15.85424,-0.21477 21.36571,5.29364c5.59502,5.59502 7.55291,13.82374 5.28839,21.37315c-7.72787,2.34806 -15.84724,0.21696 -21.3644,-5.29714c-5.59415,-5.59415 -7.55291,-13.82155 -5.2897,-21.36965zM51.76718,89.82348c1.88659,7.39544 5.59808,14.02277 10.99364,19.4157c5.39468,5.39468 12.02201,9.10618 19.41789,10.99146l-23.97404,23.97404c-8.11849,8.11849 -22.29085,8.11849 -30.40934,0c-8.38444,-8.38444 -8.38444,-22.0249 0,-30.40934zM154.33879,68.33879l-35.83333,35.83333c-1.98413,1.98413 -4.36019,3.7478 -7.47111,5.54997c-6.39681,3.69881 -13.71045,5.28752 -21.13607,4.61214c-8.57341,-0.78035 -16.20549,-4.2972 -22.07039,-10.16211c-5.49966,-5.49966 -8.84067,-12.58935 -9.8931,-20.51625l5.69388,-5.69388c0.30094,-0.30051 0.67275,-0.5179 0.99075,-0.79873c-0.47504,8.04806 2.4128,16.07907 8.27552,21.94179c5.41349,5.41349 12.61165,8.39494 20.27173,8.39494c3.47485,0 6.94971,-0.66138 10.31608,-1.96313c3.80379,-1.46273 7.15265,-3.62883 9.95565,-6.4318l35.83333,-35.83333c11.17692,-11.17692 11.17692,-29.36654 0,-40.54346c-10.82699,-10.82699 -29.71647,-10.82699 -40.54346,0l-27.77215,27.77215c-3.69444,-0.17322 -7.35782,0.04505 -10.91578,0.78167l33.62087,-33.62087c13.9694,-13.9694 36.70817,-13.9694 50.67757,0c13.9729,13.9729 13.9729,36.70467 0,50.67757z"
                              ></path>
                            </g>
                            <path d="" fill="none"></path>
                          </g>
                        </g>
                      </svg>